<?xml version="1.0" encoding="UTF-8" standalone="no"?>
<!-- Created with Inkscape (http://www.inkscape.org/) -->

<svg
   xmlns:dc="http://purl.org/dc/elements/1.1/"
   xmlns:cc="http://creativecommons.org/ns#"
   xmlns:rdf="http://www.w3.org/1999/02/22-rdf-syntax-ns#"
   xmlns:svg="http://www.w3.org/2000/svg"
   xmlns="http://www.w3.org/2000/svg"
   xmlns:sodipodi="http://sodipodi.sourceforge.net/DTD/sodipodi-0.dtd"
   xmlns:inkscape="http://www.inkscape.org/namespaces/inkscape"
   width="86"
   height="86"
   id="svg2"
   version="1.1"
   inkscape:version="0.92.4 5da689c313, 2019-01-14"
   sodipodi:docname="cover.svg"
   inkscape:export-xdpi="193.35001"
   inkscape:export-ydpi="193.35001">
  <defs
     id="defs4">
    <linearGradient
       id="linearGradient3789-6">
      <stop
         style="stop-color:#1e9bff;stop-opacity:1;"
         offset="0"
         id="stop3791-0" />
      <stop
         style="stop-color:#00c8de;stop-opacity:1;"
         offset="1"
         id="stop3793-4" />
    </linearGradient>
  </defs>
  <sodipodi:namedview
     id="base"
     pagecolor="#ffffff"
     bordercolor="#666666"
     borderopacity="1.0"
     inkscape:pageopacity="0.0"
     inkscape:pageshadow="2"
     inkscape:zoom="7.9999999"
     inkscape:cx="48.493628"
     inkscape:cy="39.498091"
     inkscape:document-units="px"
     inkscape:current-layer="layer2"
     showgrid="true"
     inkscape:window-width="1920"
     inkscape:window-height="1007"
     inkscape:window-x="0"
     inkscape:window-y="36"
     inkscape:window-maximized="1"
     inkscape:snap-bbox="true"
     inkscape:snap-global="true">
    <inkscape:grid
       type="xygrid"
       id="grid2985"
       empspacing="5"
       visible="true"
       enabled="true"
       snapvisiblegridlinesonly="true" />
  </sodipodi:namedview>
  <metadata
     id="metadata7">
    <rdf:RDF>
      <cc:Work
         rdf:about="">
        <dc:format>image/svg+xml</dc:format>
        <dc:type
           rdf:resource="http://purl.org/dc/dcmitype/StillImage" />
        <dc:title />
      </cc:Work>
    </rdf:RDF>
  </metadata>
  <g
     inkscape:groupmode="layer"
     id="layer2"
     inkscape:label="Ebene"
     style="display:inline"
     transform="translate(0,-4)">
    <path
       id="path4841"
       d="m 42.996452,18.63417 a 28.361164,28.361569 0 0 0 -28.36076,28.36238 28.361164,28.361569 0 0 0 28.36076,28.361568 28.361164,28.361569 0 0 0 14.712,-4.149248 c 3.485692,1.385136 11.293328,5.494512 13.151576,3.719492 1.9418,-1.854396 -2.279696,-10.5822 -3.291764,-13.825424 A 28.361164,28.361569 0 0 0 71.356884,46.996306 28.361164,28.361569 0 0 0 42.996532,18.635142 Z m 0.0032,10.782776 a 17.58568,17.586085 0 0 1 17.58572,17.586088 17.58568,17.586085 0 0 1 -17.58568,17.584868 17.58568,17.586085 0 0 1 -17.58568,-17.584868 17.58568,17.586085 0 0 1 17.58568,-17.586088 z"
       inkscape:connector-curvature="0"
       style="stroke-width:0.56727999;opacity:0.2;fill:#ffffff;fill-opacity:1" />
  </g>
</svg>
